<svg>

<symbol id="vk" width="30" height="30" viewBox="0 0 30 30" xmlns="http://www.w3.org/2000/svg">
<path d="M15 0C6.71601 0 0 6.7157 0 15C0 23.2843 6.71601 30 15 30C23.284 30 30 23.2843 30 15C30 6.7157 23.284 0 15 0ZM22.6088 16.6223C23.3079 17.3052 24.0476 17.9478 24.6752 18.7013C24.9533 19.0346 25.2154 19.3792 25.4148 19.7669C25.6996 20.3196 25.4425 20.9257 24.9477 20.9586L21.8747 20.958C21.081 21.0236 20.4494 20.7035 19.9169 20.1609C19.4919 19.7285 19.0975 19.2666 18.6881 18.8194C18.5208 18.6359 18.3447 18.4631 18.1347 18.3272C17.7158 18.0546 17.3518 18.1381 17.1118 18.5758C16.8672 19.0211 16.8114 19.5146 16.788 20.0102C16.7546 20.7348 16.5361 20.9242 15.809 20.9583C14.2555 21.031 12.7814 20.7953 11.4114 20.0121C10.2028 19.3212 9.26732 18.3462 8.45218 17.2423C6.86486 15.0902 5.64921 12.7283 4.55693 10.2985C4.3111 9.7513 4.49095 9.45852 5.09463 9.44716C6.0976 9.42783 7.10056 9.43028 8.10353 9.44624C8.51172 9.45268 8.78179 9.68624 8.93862 10.0714C9.48062 11.4049 10.1451 12.6737 10.9777 13.8503C11.1996 14.1637 11.4261 14.4761 11.7486 14.6974C12.1047 14.9417 12.376 14.861 12.5438 14.4635C12.6513 14.2109 12.6976 13.9409 12.7209 13.6702C12.8007 12.743 12.8102 11.8162 12.6721 10.8927C12.5862 10.3148 12.2612 9.94158 11.6851 9.83233C11.3917 9.77678 11.4347 9.66813 11.5774 9.50056C11.8251 9.21084 12.0571 9.03161 12.5208 9.03161L15.9928 9.031C16.5401 9.13841 16.6628 9.38394 16.7371 9.93514L16.7402 13.7936C16.7337 14.0069 16.8473 14.6391 17.2303 14.7787C17.5372 14.88 17.7398 14.6339 17.9233 14.4396C18.7559 13.556 19.3492 12.5131 19.8804 11.4338C20.1149 10.9577 20.3171 10.4652 20.5136 9.97166C20.6596 9.60675 20.8868 9.42721 21.2986 9.43335L24.6421 9.43734C24.7406 9.43734 24.8406 9.43826 24.9382 9.45514C25.5017 9.55151 25.6561 9.79396 25.4817 10.3436C25.2074 11.2073 24.6743 11.9266 24.1532 12.6479C23.5946 13.4201 22.9989 14.1652 22.4458 14.9408C21.9376 15.6497 21.9778 16.0066 22.6088 16.6223Z"/>
</symbol>

<symbol id="ok" width="30" height="30" viewBox="0 0 30 30" xmlns="http://www.w3.org/2000/svg">
<g clip-path="url(#clip0_41399_288)">
<path d="M12.8527 9.99062C12.8527 11.2273 13.8552 12.2299 15.0919 12.2299C16.3286 12.2299 17.3311 11.2273 17.3311 9.99062C17.3311 8.75396 16.3286 7.7514 15.0919 7.7514C13.8552 7.7514 12.8527 8.75396 12.8527 9.99062Z"/>
<path fill-rule="evenodd" clip-rule="evenodd" d="M15 30C23.2843 30 30 23.2843 30 15C30 6.71573 23.2843 0 15 0C6.71572 0 0 6.71573 0 15C0 23.2843 6.71572 30 15 30ZM9.67501 9.99055C9.67501 6.99892 12.1002 4.57364 15.0919 4.57364C18.0836 4.57364 20.5088 6.99892 20.5088 9.99055C20.5088 12.9822 18.0836 15.4077 15.0919 15.4077C12.1002 15.4077 9.67501 12.9822 9.67501 9.99055ZM20.5412 18.194C20.4724 18.2491 19.1729 19.2761 17.0043 19.7179L20.2777 22.9622C20.8534 23.5369 20.854 24.4695 20.2793 25.0451C19.7046 25.6207 18.7722 25.6216 18.1964 25.0467L15.0184 21.952L12.1319 25.0268C11.8429 25.3266 11.4575 25.4774 11.0716 25.4774C10.7035 25.4774 10.3351 25.3404 10.0493 25.0648C9.46372 24.5001 9.44677 23.5677 10.0114 22.9822L13.1185 19.735C10.8891 19.3036 9.53591 18.2499 9.46622 18.194C8.83165 17.6851 8.72971 16.7581 9.23862 16.1235C9.74746 15.4889 10.6744 15.387 11.3091 15.8958C11.3225 15.9067 12.7378 16.9699 15.0183 16.9715C17.2989 16.9699 18.6849 15.9067 18.6983 15.8958C19.333 15.387 20.2599 15.4889 20.7688 16.1235C21.2777 16.7581 21.1757 17.6851 20.5412 18.194Z" />
</g>
<defs>
<clipPath id="clip0_41399_288">
<rect width="30" height="30" fill="white" transform="matrix(-1 0 0 1 30 0)"/>
</clipPath>
</defs>
</symbol>

<symbol id="calendar" width="14" height="14" viewBox="0 0 14 14"  xmlns="http://www.w3.org/2000/svg">
<g clip-path="url(#clip0_41399_325)">
<path d="M11.6666 1.74992H11.0833V0.583252H9.91663V1.74992H4.08329V0.583252H2.91663V1.74992H2.33329C1.69163 1.74992 1.16663 2.27492 1.16663 2.91659V12.2499C1.16663 12.8916 1.69163 13.4166 2.33329 13.4166H11.6666C12.3083 13.4166 12.8333 12.8916 12.8333 12.2499V2.91659C12.8333 2.27492 12.3083 1.74992 11.6666 1.74992ZM11.6666 12.2499H2.33329V4.66658H11.6666V12.2499Z"/>
</g>
<defs>
<clipPath id="clip0_41399_325">
<rect width="14" height="14" />
</clipPath>
</defs>
</symbol>

<symbol id="tel" width="18" height="18" viewBox="0 0 18 18" xmlns="http://www.w3.org/2000/svg">
<path d="M16.3425 12.0983C15.215 12.0983 14.1242 11.915 13.1067 11.585C12.7858 11.475 12.4283 11.5575 12.1808 11.805L10.7417 13.6108C8.1475 12.3733 5.71833 10.0358 4.42583 7.35L6.21333 5.82833C6.46083 5.57167 6.53417 5.21417 6.43333 4.89333C6.09417 3.87583 5.92 2.785 5.92 1.6575C5.92 1.1625 5.5075 0.75 5.0125 0.75H1.84083C1.34583 0.75 0.75 0.97 0.75 1.6575C0.75 10.1733 7.83583 17.25 16.3425 17.25C16.9933 17.25 17.25 16.6725 17.25 16.1683V13.0058C17.25 12.5108 16.8375 12.0983 16.3425 12.0983Z"/>
</symbol>

<symbol id="x" xmlns="http://www.w3.org/2000/svg" xmlns:xlink="http://www.w3.org/1999/xlink" width="30px" height="30px" viewBox="0 0 30 30" version="1.1">
<g id="surface1">
<path style=" stroke:none;fill-rule:nonzero;fill-opacity:1;" d="M 30 15 C 30 6.714844 23.285156 0 15 0 C 6.714844 0 0 6.714844 0 15 C 0 23.285156 6.714844 30 15 30 C 23.285156 30 30 23.285156 30 15 Z M 30 15 "/>
<path style=" stroke:none;fill-rule:nonzero;fill:rgb(100%,100%,100%);fill-opacity:1;" d="M 9.3125 8.25 L 22.039062 20.976562 L 20.976562 22.039062 L 8.25 9.3125 Z M 9.3125 8.25 "/>
<path style=" stroke:none;fill-rule:nonzero;fill:rgb(100%,100%,100%);fill-opacity:1;" d="M 8.386719 20.976562 L 21.113281 8.25 L 22.175781 9.3125 L 9.449219 22.039062 Z M 8.386719 20.976562 "/>
</g>
</symbol>

<symbol id="loupe" width="20" height="20" viewBox="0 0 20 20" xmlns="http://www.w3.org/2000/svg">
<path d="M17.8187 16.0625L14.607 13.3156C15.5516 12.0945 16.0625 10.6016 16.0625 9.03125C16.0625 7.15156 15.3289 5.38906 14.0023 4.06016C12.6758 2.73125 10.9086 2 9.03125 2C7.15391 2 5.38672 2.73359 4.06016 4.06016C2.73125 5.38672 2 7.15156 2 9.03125C2 10.9086 2.73359 12.6758 4.06016 14.0023C5.38672 15.3312 7.15156 16.0625 9.03125 16.0625C10.6016 16.0625 12.0922 15.5516 13.3133 14.6094L16.5249 17.3539C16.5428 17.3718 16.564 17.3859 16.5873 17.3956C16.6106 17.4053 16.6356 17.4102 16.6609 17.4102C16.6861 17.4102 16.7111 17.4053 16.7344 17.3956C16.7578 17.3859 16.7789 17.3718 16.7968 17.3539L17.8187 16.3344C17.8365 16.3165 17.8507 16.2953 17.8604 16.272C17.87 16.2487 17.875 16.2237 17.875 16.1984C17.875 16.1732 17.87 16.1482 17.8604 16.1249C17.8507 16.1015 17.8365 16.0803 17.8187 16.0625ZM12.7438 12.7438C11.75 13.7352 10.4328 14.2812 9.03125 14.2812C7.62969 14.2812 6.3125 13.7352 5.31875 12.7438C4.32734 11.75 3.78125 10.4328 3.78125 9.03125C3.78125 7.62969 4.32734 6.31016 5.31875 5.31875C6.3125 4.32734 7.62969 3.78125 9.03125 3.78125C10.4328 3.78125 11.7523 4.325 12.7438 5.31875C13.7352 6.3125 14.2812 7.62969 14.2812 9.03125C14.2812 10.4328 13.7352 11.7523 12.7438 12.7438Z"/>
</symbol>

<symbol id="sort" xmlns="http://www.w3.org/2000/svg" xmlns:xlink="http://www.w3.org/1999/xlink" width="30px" height="30px" viewBox="0 0 30 30" version="1.1">
<g id="surface1">
<path style=" stroke:none;fill-rule:nonzero;fill-opacity:1;" d="M 0 15 L 0 30 L 30 30 L 30 0 L 0 0 Z M 11.8125 6.375 L 14.5625 9.375 L 10.625 9.375 L 10.625 19.375 L 6.875 19.375 L 6.875 9.375 L 3 9.375 L 5.75 6.25 C 7.25 4.5625 8.5625 3.25 8.75 3.3125 C 8.9375 3.375 10.3125 4.75 11.8125 6.375 Z M 23.125 4.375 C 23.125 5.375 22.6875 5.625 21.25 5.625 C 19.8125 5.625 19.375 5.375 19.375 4.375 C 19.375 3.375 19.8125 3.125 21.25 3.125 C 22.6875 3.125 23.125 3.375 23.125 4.375 Z M 23.125 8.125 C 23.125 9.125 22.6875 9.375 21.25 9.375 C 19.8125 9.375 19.375 9.125 19.375 8.125 C 19.375 7.125 19.8125 6.875 21.25 6.875 C 22.6875 6.875 23.125 7.125 23.125 8.125 Z M 23.125 15.5625 L 23.125 20.5625 L 26.75 20.9375 L 24 23.9375 L 21.25 27 L 18.5 23.9375 L 15.75 20.9375 L 19.375 20.5625 L 19.375 10.625 L 23.125 10.625 Z M 10.625 21.875 C 10.625 22.875 10.1875 23.125 8.75 23.125 C 7.3125 23.125 6.875 22.875 6.875 21.875 C 6.875 20.875 7.3125 20.625 8.75 20.625 C 10.1875 20.625 10.625 20.875 10.625 21.875 Z M 10.625 25.625 C 10.625 26.625 10.1875 26.875 8.75 26.875 C 7.3125 26.875 6.875 26.625 6.875 25.625 C 6.875 24.625 7.3125 24.375 8.75 24.375 C 10.1875 24.375 10.625 24.625 10.625 25.625 Z M 10.625 25.625 "/>
</g>
</symbol>

<symbol id="top-scroll" xmlns="http://www.w3.org/2000/svg" xmlns:xlink="http://www.w3.org/1999/xlink" width="50px" height="50px" viewBox="0 0 50 50" version="1.1">
<g id="surface1">
<path style=" stroke:none;fill-rule:nonzero;fill-opacity:1;" d="M 23.605469 0.046875 C 18.238281 0.371094 13.335938 2.285156 9.132812 5.699219 C 8.265625 6.402344 6.542969 8.105469 5.855469 8.933594 C 2.472656 13.035156 0.589844 17.605469 0.09375 22.949219 C 0.015625 23.792969 0.015625 26.195312 0.09375 27.050781 C 0.660156 33.21875 3.203125 38.617188 7.535156 42.851562 C 10.734375 45.980469 14.621094 48.160156 18.929688 49.234375 C 21.007812 49.753906 22.777344 49.96875 24.976562 49.96875 C 26.390625 49.96875 27.207031 49.917969 28.417969 49.75 C 35.582031 48.757812 41.9375 44.734375 45.910156 38.671875 C 47.945312 35.5625 49.242188 32.105469 49.75 28.417969 C 49.917969 27.207031 49.972656 26.390625 49.972656 24.976562 C 49.964844 23.574219 49.921875 22.816406 49.75 21.582031 C 48.863281 15.117188 45.488281 9.28125 40.296875 5.238281 C 39.707031 4.78125 38.421875 3.90625 37.792969 3.53125 C 34.585938 1.625 31.078125 0.484375 27.335938 0.121094 C 26.378906 0.0351562 24.507812 -0.00390625 23.605469 0.046875 Z M 25.511719 8.539062 C 25.84375 8.734375 38.042969 20.953125 38.300781 21.351562 C 38.722656 22 38.882812 22.554688 38.882812 23.339844 C 38.882812 24.417969 38.535156 25.203125 37.714844 25.972656 C 37.066406 26.578125 36.226562 26.902344 35.316406 26.902344 C 34.574219 26.902344 33.898438 26.695312 33.265625 26.265625 C 33.136719 26.175781 32.027344 25.105469 30.800781 23.882812 L 28.566406 21.660156 L 28.554688 30.199219 L 28.539062 38.746094 L 28.410156 39.136719 C 28.214844 39.703125 27.960938 40.105469 27.515625 40.550781 C 27.070312 40.996094 26.660156 41.253906 26.097656 41.441406 C 25.746094 41.558594 25.636719 41.570312 25 41.570312 C 24.367188 41.570312 24.253906 41.558594 23.910156 41.445312 C 23.363281 41.257812 22.882812 40.957031 22.460938 40.53125 C 22.035156 40.101562 21.78125 39.6875 21.59375 39.136719 L 21.460938 38.746094 L 21.445312 30.199219 L 21.4375 21.660156 L 19.199219 23.882812 C 17.972656 25.105469 16.867188 26.175781 16.734375 26.265625 C 15.605469 27.027344 14.273438 27.113281 13.039062 26.503906 C 12.699219 26.34375 12.542969 26.21875 12.183594 25.859375 C 11.699219 25.371094 11.480469 25.039062 11.300781 24.519531 C 10.890625 23.335938 11.113281 22.066406 11.914062 21.082031 C 12.070312 20.886719 14.933594 17.996094 18.273438 14.664062 C 23.007812 9.929688 24.390625 8.574219 24.5625 8.5 C 24.886719 8.355469 25.214844 8.367188 25.511719 8.539062 Z M 25.511719 8.539062 "/>
</g>
</symbol>

<symbol id="right-arrow" width="32" height="32" viewBox="0 0 32 32" xmlns="http://www.w3.org/2000/svg">
<g clip-path="url(#clip0_27901_925)">
<path d="M14 11L19 16L14 21" stroke-width="2" stroke-linecap="round" stroke-linejoin="round"/>
<circle cx="16" cy="16" r="15" stroke="#A65CF0" stroke-width="2"/>
</g>
<defs>
<clipPath id="clip0_27901_925">
<rect width="32" height="32" fill="white"/>
</clipPath>
</defs>
</symbol>

<symbol id="user" width="26" height="28" viewBox="0 0 26 28" xmlns="http://www.w3.org/2000/svg">
<path fill="currentcolor" d="M24.98 22.8503C24.3278 21.2785 23.3813 19.8508 22.1933 18.6467C21.0089 17.4392 19.6059 16.4764 18.0617 15.8116C18.0478 15.8045 18.034 15.801 18.0202 15.794C20.1742 14.2111 21.5744 11.6327 21.5744 8.72362C21.5744 3.90452 17.7367 0 13 0C8.26333 0 4.42559 3.90452 4.42559 8.72362C4.42559 11.6327 5.82585 14.2111 7.97982 15.7975C7.96599 15.8045 7.95216 15.808 7.93833 15.8151C6.38941 16.4799 4.99952 17.4332 3.80671 18.6503C2.61981 19.8553 1.67349 21.2827 1.02003 22.8538C0.37806 24.3918 0.0318323 26.0409 8.64563e-05 27.7116C-0.000836348 27.7491 0.00563604 27.7864 0.0191224 27.8214C0.0326088 27.8564 0.0528363 27.8882 0.0786128 27.9151C0.104389 27.942 0.135194 27.9633 0.16921 27.9779C0.203227 27.9925 0.239768 28 0.27668 28H2.35113C2.50326 28 2.62427 27.8769 2.62773 27.7256C2.69688 25.01 3.76868 22.4668 5.66335 20.5392C7.62371 18.5447 10.2271 17.4472 13 17.4472C15.7729 17.4472 18.3763 18.5447 20.3367 20.5392C22.2313 22.4668 23.3031 25.01 23.3723 27.7256C23.3757 27.8804 23.4967 28 23.6489 28H25.7233C25.7602 28 25.7968 27.9925 25.8308 27.9779C25.8648 27.9633 25.8956 27.942 25.9214 27.9151C25.9472 27.8882 25.9674 27.8564 25.9809 27.8214C25.9944 27.7864 26.0008 27.7491 25.9999 27.7116C25.9653 26.0301 25.6231 24.3945 24.98 22.8503ZM13 14.7739C11.413 14.7739 9.91943 14.1442 8.79577 13.001C7.67211 11.8578 7.05323 10.3382 7.05323 8.72362C7.05323 7.10905 7.67211 5.58945 8.79577 4.44623C9.91943 3.30301 11.413 2.67337 13 2.67337C14.587 2.67337 16.0806 3.30301 17.2042 4.44623C18.3279 5.58945 18.9468 7.10905 18.9468 8.72362C18.9468 10.3382 18.3279 11.8578 17.2042 13.001C16.0806 14.1442 14.587 14.7739 13 14.7739Z"/>
</symbol>

<symbol id="cart" width="30" height="28" viewBox="0 0 30 28" xmlns="http://www.w3.org/2000/svg">
<path fill="currentcolor" d="M28.8162 19.8503H8.90202L9.90191 17.7365L26.5154 17.7052C27.0772 17.7052 27.5588 17.2887 27.6591 16.7125L29.9599 3.34598C30.0201 2.99541 29.9298 2.63444 29.7091 2.36023C29.6 2.22528 29.4639 2.11658 29.3103 2.04166C29.1567 1.96674 28.9892 1.9274 28.8195 1.92637L7.68476 1.85348L7.50418 0.971861C7.39048 0.40957 6.90224 0 6.34712 0H1.18047C0.86739 0 0.567133 0.129087 0.345752 0.358864C0.124371 0.588641 0 0.900285 0 1.22524C0 1.55019 0.124371 1.86184 0.345752 2.09161C0.567133 2.32139 0.86739 2.45048 1.18047 2.45048H5.3907L6.17991 6.34486L8.12284 16.1086L5.62145 20.3466C5.49155 20.5286 5.4133 20.7446 5.39557 20.9704C5.37784 21.1961 5.42134 21.4225 5.52112 21.6239C5.72177 22.0369 6.12641 22.2973 6.57452 22.2973H8.67462C8.2269 22.9145 7.98508 23.6662 7.98573 24.4388C7.98573 26.4034 9.52402 28 11.4168 28C13.3096 28 14.8478 26.4034 14.8478 24.4388C14.8478 23.6648 14.6004 22.9116 14.159 22.2973H19.5463C19.0986 22.9145 18.8568 23.6662 18.8574 24.4388C18.8574 26.4034 20.3957 28 22.2885 28C24.1812 28 25.7195 26.4034 25.7195 24.4388C25.7195 23.6648 25.4721 22.9116 25.0307 22.2973H28.8195C29.4683 22.2973 30 21.7489 30 21.072C29.9981 20.7474 29.8725 20.4368 29.6507 20.2079C29.4289 19.979 29.1289 19.8504 28.8162 19.8503ZM8.17635 4.26925L27.4317 4.33519L25.5456 15.2964L10.4202 15.3242L8.17635 4.26925ZM11.4168 25.5356C10.8349 25.5356 10.36 25.0428 10.36 24.4388C10.36 23.8349 10.8349 23.342 11.4168 23.342C11.9987 23.342 12.4735 23.8349 12.4735 24.4388C12.4735 24.7297 12.3622 25.0087 12.164 25.2144C11.9658 25.4201 11.6971 25.5356 11.4168 25.5356ZM22.2885 25.5356C21.7066 25.5356 21.2317 25.0428 21.2317 24.4388C21.2317 23.8349 21.7066 23.342 22.2885 23.342C22.8704 23.342 23.3452 23.8349 23.3452 24.4388C23.3452 24.7297 23.2339 25.0087 23.0357 25.2144C22.8375 25.4201 22.5687 25.5356 22.2885 25.5356Z"/>
</symbol>

<symbol id ="star" width="16" height="15" viewBox="0 0 16 15" xmlns="http://www.w3.org/2000/svg">
<path  d="M15.2257 5.28193L10.5089 4.59758L8.40032 0.330127C8.34273 0.213287 8.24799 0.118702 8.13095 0.0612089C7.83742 -0.0834504 7.48074 0.037099 7.33398 0.330127L5.22543 4.59758L0.508622 5.28193C0.378579 5.30047 0.259684 5.36167 0.168654 5.45441C0.0586046 5.56733 -0.00203778 5.71924 5.22879e-05 5.87678C0.00214235 6.03431 0.0667938 6.18457 0.179801 6.29454L3.59248 9.61614L2.78622 14.3064C2.76731 14.4156 2.7794 14.5278 2.82113 14.6304C2.86285 14.733 2.93253 14.8218 3.02228 14.8869C3.11202 14.952 3.21823 14.9906 3.32886 14.9985C3.4395 15.0064 3.55013 14.9831 3.64821 14.9314L7.86715 12.717L12.0861 14.9314C12.2013 14.9926 12.335 15.013 12.4632 14.9908C12.7865 14.9352 13.0038 14.6291 12.9481 14.3064L12.1418 9.61614L15.5545 6.29454C15.6474 6.20367 15.7087 6.08497 15.7273 5.95515C15.7774 5.63059 15.5508 5.33015 15.2257 5.28193Z"/>
</symbol>

<!-- <symbol id="top" width="22" height="22" viewBox="0 0 22 22" xmlns="http://www.w3.org/2000/svg">
<g clip-path="url(#clip0_26561_709)">
<path d="M9.625 7.5625L13.0625 11L9.625 14.4375" stroke-width="2" stroke-linecap="round" stroke-linejoin="round"/>
<circle cx="11" cy="11" r="10" stroke="#A65CF0" stroke-width="2"/>
</g>
<defs>
<clipPath id="clip0_26561_709">
<rect width="22" height="22" fill="white"/>
</clipPath>
</defs>
</symbol> -->

</svg>

